{
  "accessors": [
    {
      "bufferView": 2,
      "componentType": 5126,
      "count": 1056,
      "max": [
        -0.12809599936008453,
        -0.22623099386692047,
        0.0019199999514967203
      ],
      "min": [
        -0.13870200514793396,
        -0.508957028388977,
        -0.8691650032997131
      ],
      "type": "VEC3"
    },
    {
      "bufferView": 2,
      "byteOffset": 12672,
      "componentType": 5126,
      "count": 1056,
      "max": [
        0.9999576807022095,
        0.9996315836906433,
        0.9994828104972839
      ],
      "min": [
        -0.9999576807022095,
        -0.999636709690094,
        -0.999572217464447
      ],
      "type": "VEC3"
    },
    {
      "bufferView": 1,
      "componentType": 5126,
      "count": 1056,
      "max": [
        1.0030239820480347,
        1.0010000467300415
      ],
      "min": [
        0.0,
        0.002500999951735139
      ],
      "type": "VEC2"
    },
    {
      "bufferView": 0,
      "componentType": 5125,
      "count": 1584,
      "type": "SCALAR"
    },
    {
      "bufferView": 2,
      "byteOffset": 25344,
      "componentType": 5126,
      "count": 376,
      "max": [
        0.21504199504852295,
        -0.8125380277633667,
        0.8020700216293335
      ],
      "min": [
        -0.21504199504852295,
        -0.880279004573822,
        0.7073119878768921
      ],
      "type": "VEC3"
    },
    {
      "bufferView": 2,
      "byteOffset": 29856,
      "componentType": 5126,
      "count": 376,
      "max": [
        0.9930635094642639,
        0.9788914918899536,
        0.9799208045005798
      ],
      "min": [
        -0.9974304437637329,
        -0.9788417816162109,
        -0.9585855007171631
      ],
      "type": "VEC3"
    },
    {
      "bufferView": 1,
      "byteOffset": 8448,
      "componentType": 5126,
      "count": 376,
      "max": [
        3.5176360607147217,
        0.10129600018262863
      ],
      "min": [
        3.184401035308838,
        0.0101539995521307
      ],
      "type": "VEC2"
    },
    {
      "bufferView": 0,
      "byteOffset": 6336,
      "componentType": 5125,
      "count": 948,
      "type": "SCALAR"
    },
    {
      "bufferView": 2,
      "byteOffset": 34368,
      "componentType": 5126,
      "count": 3145,
      "max": [
        0.25418299436569214,
        -0.14840799570083618,
        0.3279010057449341
      ],
      "min": [
        -0.17856299877166748,
        -0.7369629740715027,
        -0.5453940033912659
      ],
      "type": "VEC3"
    },
    {
      "bufferView": 2,
      "byteOffset": 72108,
      "componentType": 5126,
      "count": 3145,
      "max": [
        1.0,
        0.9988027215003967,
        1.0
      ],
      "min": [
        -1.0,
        -0.9998612403869629,
        -0.9996681809425354
      ],
      "type": "VEC3"
    },
    {
      "bufferView": 1,
      "byteOffset": 11456,
      "componentType": 5126,
      "count": 3145,
      "max": [
        0.9977840185165405,
        0.9976000189781189
      ],
      "min": [
        0.0,
        0.0
      ],
      "type": "VEC2"
    },
    {
      "bufferView": 0,
      "byteOffset": 10128,
      "componentType": 5125,
      "count": 9444,
      "type": "SCALAR"
    },
    {
      "bufferView": 2,
      "byteOffset": 109848,
      "componentType": 5126,
      "count": 9,
      "max": [
        0.15432299673557281,
        -0.37569600343704224,
        -0.22233399748802185
      ],
      "min": [
        0.15432299673557281,
        -0.38756099343299866,
        -0.23419900238513947
      ],
      "type": "VEC3"
    },
    {
      "bufferView": 2,
      "byteOffset": 109956,
      "componentType": 5126,
      "count": 9,
      "max": [
        1.0,
        0.0,
        -0.0
      ],
      "min": [
        1.0,
        0.0,
        -0.0
      ],
      "type": "VEC3"
    },
    {
      "bufferView": 1,
      "byteOffset": 36616,
      "componentType": 5126,
      "count": 9,
      "max": [
        0.061000000685453415,
        0.060155998915433884
      ],
      "min": [
        0.005787999834865332,
        0.004945000167936087
      ],
      "type": "VEC2"
    },
    {
      "bufferView": 0,
      "byteOffset": 47904,
      "componentType": 5125,
      "count": 24,
      "type": "SCALAR"
    },
    {
      "bufferView": 2,
      "byteOffset": 110064,
      "componentType": 5126,
      "count": 68,
      "max": [
        0.1349869966506958,
        -0.3985140025615692,
        0.7303500175476074
      ],
      "min": [
        -0.1349869966506958,
        -0.672469973564148,
        0.5755699872970581
      ],
      "type": "VEC3"
    },
    {
      "bufferView": 2,
      "byteOffset": 110880,
      "componentType": 5126,
      "count": 68,
      "max": [
        0.9997237324714661,
        0.40418747067451477,
        0.9143738150596619
      ],
      "min": [
        -0.9997237324714661,
        -0.4042253792285919,
        -0.91437166929245
      ],
      "type": "VEC3"
    },
    {
      "bufferView": 1,
      "byteOffset": 36688,
      "componentType": 5126,
      "count": 68,
      "max": [
        4.276944160461426,
        0.7740030288696289
      ],
      "min": [
        4.246524810791016,
        0.7150650024414063
      ],
      "type": "VEC2"
    },
    {
      "bufferView": 0,
      "byteOffset": 48000,
      "componentType": 5125,
      "count": 192,
      "type": "SCALAR"
    },
    {
      "bufferView": 2,
      "byteOffset": 111696,
      "componentType": 5126,
      "count": 3819,
      "max": [
        0.21820800006389618,
        -0.8207169771194458,
        0.7284219861030579
      ],
      "min": [
        -0.21788400411605835,
        -1.065742015838623,
        0.479420006275177
      ],
      "type": "VEC3"
    },
    {
      "bufferView": 2,
      "byteOffset": 157524,
      "componentType": 5126,
      "count": 3819,
      "max": [
        1.0,
        0.993639349937439,
        1.0
      ],
      "min": [
        -1.0,
        -1.0,
        -1.0
      ],
      "type": "VEC3"
    },
    {
      "bufferView": 1,
      "byteOffset": 37232,
      "componentType": 5126,
      "count": 3819,
      "max": [
        1.9963459968566895,
        0.995527982711792
      ],
      "min": [
        1.0019530057907104,
        0.0019529999699443579
      ],
      "type": "VEC2"
    },
    {
      "bufferView": 0,
      "byteOffset": 48768,
      "componentType": 5125,
      "count": 10644,
      "type": "SCALAR"
    },
    {
      "bufferView": 2,
      "byteOffset": 203352,
      "componentType": 5126,
      "count": 1552,
      "max": [
        0.0637189969420433,
        0.0032049999572336674,
        1.0712649822235107
      ],
      "min": [
        -0.06362199783325195,
        -0.6419439911842346,
        0.4261159896850586
      ],
      "type": "VEC3"
    },
    {
      "bufferView": 2,
      "byteOffset": 221976,
      "componentType": 5126,
      "count": 1552,
      "max": [
        0.9964175820350647,
        0.9966595768928528,
        0.9966439008712769
      ],
      "min": [
        -0.9967017769813538,
        -0.9966363310813904,
        -0.9966521263122559
      ],
      "type": "VEC3"
    },
    {
      "bufferView": 1,
      "byteOffset": 67784,
      "componentType": 5126,
      "count": 1552,
      "max": [
        0.9921879768371582,
        0.9923359751701355
      ],
      "min": [
        0.007660000119358301,
        0.0078119998797774315
      ],
      "type": "VEC2"
    },
    {
      "bufferView": 0,
      "byteOffset": 91344,
      "componentType": 5125,
      "count": 7296,
      "type": "SCALAR"
    },
    {
      "bufferView": 2,
      "byteOffset": 240600,
      "componentType": 5126,
      "count": 451,
      "max": [
        0.24024200439453125,
        -0.7358319759368896,
        0.8125789761543274
      ],
      "min": [
        -0.24024200439453125,
        -1.2527999877929688,
        0.4233750104904175
      ],
      "type": "VEC3"
    },
    {
      "bufferView": 2,
      "byteOffset": 246012,
      "componentType": 5126,
      "count": 451,
      "max": [
        0.9818843007087708,
        0.998405933380127,
        0.997654914855957
      ],
      "min": [
        -0.9818843007087708,
        -0.9966896772384644,
        -0.9343375563621521
      ],
      "type": "VEC3"
    },
    {
      "bufferView": 1,
      "byteOffset": 80200,
      "componentType": 5126,
      "count": 451,
      "max": [
        0.982899010181427,
        0.7885540127754211
      ],
      "min": [
        0.0,
        0.0
      ],
      "type": "VEC2"
    },
    {
      "bufferView": 0,
      "byteOffset": 120528,
      "componentType": 5125,
      "count": 1626,
      "type": "SCALAR"
    },
    {
      "bufferView": 2,
      "byteOffset": 251424,
      "componentType": 5126,
      "count": 144,
      "max": [
        0.1714940071105957,
        -0.7365189790725708,
        0.7632359862327576
      ],
      "min": [
        -0.1714940071105957,
        -0.7887499928474426,
        0.7542380094528198
      ],
      "type": "VEC3"
    },
    {
      "bufferView": 2,
      "byteOffset": 253152,
      "componentType": 5126,
      "count": 144,
      "max": [
        0.5922302603721619,
        0.9594618082046509,
        0.9998658895492554
      ],
      "min": [
        -0.5922302603721619,
        -0.9580731987953186,
        0.21179784834384918
      ],
      "type": "VEC3"
    },
    {
      "bufferView": 1,
      "byteOffset": 83808,
      "componentType": 5126,
      "count": 144,
      "max": [
        3.979142904281616,
        0.9686499834060669
      ],
      "min": [
        0.6720439791679382,
        0.7477260231971741
      ],
      "type": "VEC2"
    },
    {
      "bufferView": 0,
      "byteOffset": 127032,
      "componentType": 5125,
      "count": 450,
      "type": "SCALAR"
    },
    {
      "bufferView": 2,
      "byteOffset": 254880,
      "componentType": 5126,
      "count": 130,
      "max": [
        0.15254999697208405,
        -0.7392039895057678,
        0.7707300186157227
      ],
      "min": [
        -0.15254999697208405,
        -0.7839890122413635,
        0.7535200119018555
      ],
      "type": "VEC3"
    },
    {
      "bufferView": 2,
      "byteOffset": 256440,
      "componentType": 5126,
      "count": 130,
      "max": [
        0.9357643127441406,
        0.9358367323875427,
        1.0
      ],
      "min": [
        -0.9357643127441406,
        -0.9358280301094055,
        0.34009435772895813
      ],
      "type": "VEC3"
    },
    {
      "bufferView": 1,
      "byteOffset": 84960,
      "componentType": 5126,
      "count": 130,
      "max": [
        0.195701003074646,
        0.9942820072174072
      ],
      "min": [
        0.0053889998234808445,
        0.9056919813156128
      ],
      "type": "VEC2"
    },
    {
      "bufferView": 0,
      "byteOffset": 128832,
      "componentType": 5125,
      "count": 480,
      "type": "SCALAR"
    },
    {
      "bufferView": 2,
      "byteOffset": 258000,
      "componentType": 5126,
      "count": 31,
      "max": [
        0.026134999468922615,
        -0.8464940190315247,
        -1.0575530529022217
      ],
      "min": [
        -0.026134999468922615,
        -0.8615850210189819,
        -1.109802007675171
      ],
      "type": "VEC3"
    },
    {
      "bufferView": 2,
      "byteOffset": 258372,
      "componentType": 5126,
      "count": 31,
      "max": [
        0.9964667558670044,
        1.0,
        0.9989779591560364
      ],
      "min": [
        -0.9964667558670044,
        -0.06620106846094131,
        -0.9980448484420776
      ],
      "type": "VEC3"
    },
    {
      "bufferView": 1,
      "byteOffset": 86000,
      "componentType": 5126,
      "count": 31,
      "max": [
        0.85207200050354,
        0.9848319888114929
      ],
      "min": [
        0.5085440278053284,
        0.8366349935531616
      ],
      "type": "VEC2"
    },
    {
      "bufferView": 0,
      "byteOffset": 130752,
      "componentType": 5125,
      "count": 72,
      "type": "SCALAR"
    },
    {
      "bufferView": 2,
      "byteOffset": 258744,
      "componentType": 5126,
      "count": 362,
      "max": [
        0.256087988615036,
        -0.8031690120697021,
        0.8198950290679932
      ],
      "min": [
        -0.256087988615036,
        -0.8983229994773865,
        0.6982979774475098
      ],
      "type": "VEC3"
    },
    {
      "bufferView": 2,
      "byteOffset": 263088,
      "componentType": 5126,
      "count": 362,
      "max": [
        0.9995347857475281,
        0.9482132196426392,
        0.9747380614280701
      ],
      "min": [
        -0.9995347857475281,
        -0.9997383952140808,
        -0.5660197138786316
      ],
      "type": "VEC3"
    },
    {
      "bufferView": 1,
      "byteOffset": 86248,
      "componentType": 5126,
      "count": 362,
      "max": [
        3.990715980529785,
        0.7670390009880066
      ],
      "min": [
        0.2837649881839752,
        0.12966200709342957
      ],
      "type": "VEC2"
    },
    {
      "bufferView": 0,
      "byteOffset": 131040,
      "componentType": 5125,
      "count": 858,
      "type": "SCALAR"
    },
    {
      "bufferView": 2,
      "byteOffset": 267432,
      "componentType": 5126,
      "count": 3592,
      "max": [
        0.26026201248168945,
        -0.14820300042629242,
        0.8478419780731201
      ],
      "min": [
        -0.26919400691986084,
        -1.03997802734375,
        -0.027403999119997025
      ],
      "type": "VEC3"
    },
    {
      "bufferView": 2,
      "byteOffset": 310536,
      "componentType": 5126,
      "count": 3592,
      "max": [
        0.9999067783355713,
        0.9998806715011597,
        0.9999998807907104
      ],
      "min": [
        -0.9999020099639893,
        -0.9992979764938354,
        -0.9982442855834961
      ],
      "type": "VEC3"
    },
    {
      "bufferView": 1,
      "byteOffset": 89144,
      "componentType": 5126,
      "count": 3592,
      "max": [
        0.9971190094947815,
        0.9866020083427429
      ],
      "min": [
        0.001551999943330884,
        0.01933100074529648
      ],
      "type": "VEC2"
    },
    {
      "bufferView": 0,
      "byteOffset": 134472,
      "componentType": 5125,
      "count": 10731,
      "type": "SCALAR"
    },
    {
      "bufferView": 2,
      "byteOffset": 353640,
      "componentType": 5126,
      "count": 60,
      "max": [
        -0.1331849992275238,
        -0.23333799839019775,
        -0.00535399978980422
      ],
      "min": [
        -0.13363300263881683,
        -0.5017319917678833,
        -0.8619610071182251
      ],
      "type": "VEC3"
    },
    {
      "bufferView": 1,
      "byteOffset": 117880,
      "componentType": 5126,
      "count": 60,
      "max": [
        0.0,
        0.0
      ],
      "min": [
        0.0,
        0.0
      ],
      "type": "VEC2"
    },
    {
      "bufferView": 0,
      "byteOffset": 177396,
      "componentType": 5125,
      "count": 120,
      "type": "SCALAR"
    },
    {
      "bufferView": 2,
      "byteOffset": 354360,
      "componentType": 5126,
      "count": 997,
      "max": [
        0.27856600284576416,
        -0.33979201316833496,
        -0.42926400899887085
      ],
      "min": [
        0.16548700630664825,
        -0.6622840166091919,
        -0.811335027217865
      ],
      "type": "VEC3"
    },
    {
      "bufferView": 2,
      "byteOffset": 366324,
      "componentType": 5126,
      "count": 997,
      "max": [
        0.9988549947738647,
        0.9937297701835632,
        0.9984105825424194
      ],
      "min": [
        -0.9990794062614441,
        -0.9996829628944397,
        -0.993730366230011
      ],
      "type": "VEC3"
    },
    {
      "bufferView": 1,
      "byteOffset": 118360,
      "componentType": 5126,
      "count": 997,
      "max": [
        0.9959819912910461,
        0.9955019950866699
      ],
      "min": [
        0.003616000059992075,
        0.0024610001128166914
      ],
      "type": "VEC2"
    },
    {
      "bufferView": 0,
      "byteOffset": 177876,
      "componentType": 5125,
      "count": 3318,
      "type": "SCALAR"
    },
    {
      "bufferView": 2,
      "byteOffset": 378288,
      "componentType": 5126,
      "count": 72,
      "max": [
        0.20270100235939026,
        -0.47919899225234985,
        -0.48916900157928467
      ],
      "min": [
        0.1728540062904358,
        -0.49613699316978455,
        -0.506106972694397
      ],
      "type": "VEC3"
    },
    {
      "bufferView": 2,
      "byteOffset": 379152,
      "componentType": 5126,
      "count": 72,
      "max": [
        1.0,
        0.999991774559021,
        0.9960675835609436
      ],
      "min": [
        -0.9999852180480957,
        -0.9999920129776001,
        -0.9960675835609436
      ],
      "type": "VEC3"
    },
    {
      "bufferView": 1,
      "byteOffset": 126336,
      "componentType": 5126,
      "count": 72,
      "max": [
        0.7868649959564209,
        0.43490099906921387
      ],
      "min": [
        0.013062999583780766,
        0.3339560031890869
      ],
      "type": "VEC2"
    },
    {
      "bufferView": 0,
      "byteOffset": 191148,
      "componentType": 5125,
      "count": 126,
      "type": "SCALAR"
    },
    {
      "bufferView": 2,
      "byteOffset": 380016,
      "componentType": 5126,
      "count": 38,
      "max": [
        0.04442799836397171,
        -0.7978000044822693,
        -1.0658949613571167
      ],
      "min": [
        -0.04442799836397171,
        -0.831525981426239,
        -1.0725170373916626
      ],
      "type": "VEC3"
    },
    {
      "bufferView": 2,
      "byteOffset": 380472,
      "componentType": 5126,
      "count": 38,
      "max": [
        0.9886381030082703,
        0.9855621457099915,
        -0.029201041907072067
      ],
      "min": [
        -0.9886381030082703,
        -0.9844350814819336,
        -1.0
      ],
      "type": "VEC3"
    },
    {
      "bufferView": 1,
      "byteOffset": 126912,
      "componentType": 5126,
      "count": 38,
      "max": [
        4.966250896453857,
        0.8052399754524231
      ],
      "min": [
        4.496565818786621,
        0.23233899474143982
      ],
      "type": "VEC2"
    },
    {
      "bufferView": 0,
      "byteOffset": 191652,
      "componentType": 5125,
      "count": 102,
      "type": "SCALAR"
    },
    {
      "bufferView": 2,
      "byteOffset": 380928,
      "componentType": 5126,
      "count": 1840,
      "max": [
        0.10404299944639206,
        0.0015589999966323376,
        -0.4015679955482483
      ],
      "min": [
        -0.10404299944639206,
        -0.6925370097160339,
        -1.0956629514694214
      ],
      "type": "VEC3"
    },
    {
      "bufferView": 2,
      "byteOffset": 403008,
      "componentType": 5126,
      "count": 1840,
      "max": [
        0.9825407862663269,
        0.995730996131897,
        0.995730996131897
      ],
      "min": [
        -0.9799354076385498,
        -0.995730996131897,
        -0.995730996131897
      ],
      "type": "VEC3"
    },
    {
      "bufferView": 1,
      "byteOffset": 127216,
      "componentType": 5126,
      "count": 1840,
      "max": [
        0.9923419952392578,
        0.9923329949378967
      ],
      "min": [
        0.007658000104129314,
        0.007666999939829111
      ],
      "type": "VEC2"
    },
    {
      "bufferView": 0,
      "byteOffset": 192060,
      "componentType": 5125,
      "count": 7296,
      "type": "SCALAR"
    },
    {
      "bufferView": 2,
      "byteOffset": 425088,
      "componentType": 5126,
      "count": 34,
      "max": [
        0.1427219957113266,
        -0.46065399050712585,
        0.6247649788856506
      ],
      "min": [
        -0.1427219957113266,
        -0.5171899795532227,
        0.5682330131530762
      ],
      "type": "VEC3"
    },
    {
      "bufferView": 2,
      "byteOffset": 425496,
      "componentType": 5126,
      "count": 34,
      "max": [
        1.0,
        0.0,
        -0.0
      ],
      "min": [
        -1.0,
        0.0,
        -0.0
      ],
      "type": "VEC3"
    },
    {
      "bufferView": 1,
      "byteOffset": 141936,
      "componentType": 5126,
      "count": 34,
      "max": [
        4.137246131896973,
        0.7548729777336121
      ],
      "min": [
        4.088315963745117,
        0.7059429883956909
      ],
      "type": "VEC2"
    },
    {
      "bufferView": 0,
      "byteOffset": 221244,
      "componentType": 5125,
      "count": 96,
      "type": "SCALAR"
    },
    {
      "bufferView": 2,
      "byteOffset": 425904,
      "componentType": 5126,
      "count": 643,
      "max": [
        0.20210300385951996,
        -0.8113399744033813,
        -0.23448699712753296
      ],
      "min": [
        -0.20210300385951996,
        -1.0850909948349,
        -0.7354999780654907
      ],
      "type": "VEC3"
    },
    {
      "bufferView": 2,
      "byteOffset": 433620,
      "componentType": 5126,
      "count": 643,
      "max": [
        0.9806602597236633,
        0.9817180037498474,
        0.981804609298706
      ],
      "min": [
        -0.9806602597236633,
        -0.999964714050293,
        -0.9840480089187622
      ],
      "type": "VEC3"
    },
    {
      "bufferView": 1,
      "byteOffset": 142208,
      "componentType": 5126,
      "count": 643,
      "max": [
        0.7157719731330872,
        0.6750689744949341
      ],
      "min": [
        0.07504300028085709,
        0.04045899957418442
      ],
      "type": "VEC2"
    },
    {
      "bufferView": 0,
      "byteOffset": 221628,
      "componentType": 5125,
      "count": 2232,
      "type": "SCALAR"
    },
    {
      "bufferView": 2,
      "byteOffset": 441336,
      "componentType": 5126,
      "count": 66,
      "max": [
        -0.12856699526309967,
        -0.23087400197982788,
        -0.6340609788894653
      ],
      "min": [
        -0.13639399409294128,
        -0.46013298630714417,
        -0.863319993019104
      ],
      "type": "VEC3"
    },
    {
      "bufferView": 2,
      "byteOffset": 442128,
      "componentType": 5126,
      "count": 66,
      "max": [
        1.0,
        0.0,
        -0.0
      ],
      "min": [
        -1.0,
        0.0,
        -0.0
      ],
      "type": "VEC3"
    },
    {
      "bufferView": 1,
      "byteOffset": 147352,
      "componentType": 5126,
      "count": 66,
      "max": [
        0.8160820007324219,
        0.8164119720458984
      ],
      "min": [
        0.01191100012511015,
        0.012240000069141388
      ],
      "type": "VEC2"
    },
    {
      "bufferView": 0,
      "byteOffset": 230556,
      "componentType": 5125,
      "count": 192,
      "type": "SCALAR"
    },
    {
      "bufferView": 2,
      "byteOffset": 442920,
      "componentType": 5126,
      "count": 239,
      "max": [
        0.03279099985957146,
        -0.9486240148544312,
        -0.8180400133132935
      ],
      "min": [
        -0.03279099985957146,
        -1.0805970430374146,
        -0.9812769889831543
      ],
      "type": "VEC3"
    },
    {
      "bufferView": 2,
      "byteOffset": 445788,
      "componentType": 5126,
      "count": 239,
      "max": [
        0.9997853636741638,
        0.9999089241027832,
        0.07340019196271896
      ],
      "min": [
        -0.9998598098754883,
        -0.9973026514053345,
        -0.9875186085700989
      ],
      "type": "VEC3"
    },
    {
      "bufferView": 1,
      "byteOffset": 147880,
      "componentType": 5126,
      "count": 239,
      "max": [
        3.049837112426758,
        0.9879840016365051
      ],
      "min": [
        0.0073009999468922615,
        0.014282000251114368
      ],
      "type": "VEC2"
    },
    {
      "bufferView": 0,
      "byteOffset": 231324,
      "componentType": 5125,
      "count": 735,
      "type": "SCALAR"
    },
    {
      "bufferView": 2,
      "byteOffset": 448656,
      "componentType": 5126,
      "count": 1470,
      "max": [
        0.18068300187587738,
        -0.9664149880409241,
        0.731876015663147
      ],
      "min": [
        -0.18068300187587738,
        -1.2527999877929688,
        0.4206539988517761
      ],
      "type": "VEC3"
    },
    {
      "bufferView": 2,
      "byteOffset": 466296,
      "componentType": 5126,
      "count": 1470,
      "max": [
        0.9999661445617676,
        0.9997572302818298,
        0.9205570816993713
      ],
      "min": [
        -0.9999661445617676,
        -0.9966896772384644,
        -0.9989097714424133
      ],
      "type": "VEC3"
    },
    {
      "bufferView": 1,
      "byteOffset": 149792,
      "componentType": 5126,
      "count": 1470,
      "max": [
        0.9834129810333252,
        0.9961270093917847
      ],
      "min": [
        0.011741000227630138,
        0.007532999850809574
      ],
      "type": "VEC2"
    },
    {
      "bufferView": 0,
      "byteOffset": 234264,
      "componentType": 5125,
      "count": 5430,
      "type": "SCALAR"
    },
    {
      "bufferView": 2,
      "byteOffset": 483936,
      "componentType": 5126,
      "count": 671,
      "max": [
        0.13128699362277985,
        -0.27439698576927185,
        0.7822849750518799
      ],
      "min": [
        -0.1475680023431778,
        -0.4476740062236786,
        -0.8292790055274963
      ],
      "type": "VEC3"
    },
    {
      "bufferView": 2,
      "byteOffset": 491988,
      "componentType": 5126,
      "count": 671,
      "max": [
        1.0,
        0.9998486638069153,
        1.0
      ],
      "min": [
        -1.0,
        -1.0,
        -1.0
      ],
      "type": "VEC3"
    },
    {
      "bufferView": 1,
      "byteOffset": 161552,
      "componentType": 5126,
      "count": 671,
      "max": [
        4.9932451248168945,
        0.9885029792785645
      ],
      "min": [
        4.011997222900391,
        0.01635099947452545
      ],
      "type": "VEC2"
    },
    {
      "bufferView": 0,
      "byteOffset": 255984,
      "componentType": 5125,
      "count": 1719,
      "type": "SCALAR"
    },
    {
      "bufferView": 2,
      "byteOffset": 500040,
      "componentType": 5126,
      "count": 1378,
      "max": [
        0.09244400262832642,
        -0.1475909948348999,
        0.9204699993133545
      ],
      "min": [
        -0.07148999720811844,
        -0.4911479949951172,
        -0.865900993347168
      ],
      "type": "VEC3"
    },
    {
      "bufferView": 2,
      "byteOffset": 516576,
      "componentType": 5126,
      "count": 1378,
      "max": [
        1.0,
        0.9999903440475464,
        0.9999494552612305
      ],
      "min": [
        -1.0,
        -0.999984860420227,
        -0.9999339580535889
      ],
      "type": "VEC3"
    },
    {
      "bufferView": 1,
      "byteOffset": 166920,
      "componentType": 5126,
      "count": 1378,
      "max": [
        0.9887700080871582,
        0.9908450245857239
      ],
      "min": [
        0.005993000231683254,
        0.012206999585032463
      ],
      "type": "VEC2"
    },
    {
      "bufferView": 0,
      "byteOffset": 262860,
      "componentType": 5125,
      "count": 3912,
      "type": "SCALAR"
    },
    {
      "bufferView": 2,
      "byteOffset": 533112,
      "componentType": 5126,
      "count": 37,
      "max": [
        0.08270599693059921,
        -0.9661250114440918,
        0.6366689801216125
      ],
      "min": [
        -0.08263800293207169,
        -1.0397189855575562,
        0.6127619743347168
      ],
      "type": "VEC3"
    },
    {
      "bufferView": 2,
      "byteOffset": 533556,
      "componentType": 5126,
      "count": 37,
      "max": [
        0.0004999948432669044,
        -0.3048047721385956,
        -0.9498863816261292
      ],
      "min": [
        -0.000600020750425756,
        -0.31259551644325256,
        -0.9524149298667908
      ],
      "type": "VEC3"
    },
    {
      "bufferView": 1,
      "byteOffset": 177944,
      "componentType": 5126,
      "count": 37,
      "max": [
        0.7394940257072449,
        0.7764869928359985
      ],
      "min": [
        0.22648699581623077,
        0.45983999967575073
      ],
      "type": "VEC2"
    },
    {
      "bufferView": 0,
      "byteOffset": 278508,
      "componentType": 5125,
      "count": 102,
      "type": "SCALAR"
    },
    {
      "bufferView": 2,
      "byteOffset": 534000,
      "componentType": 5126,
      "count": 1378,
      "max": [
        0.22209300100803375,
        -0.9357640147209167,
        0.5853449702262878
      ],
      "min": [
        -0.16031299531459808,
        -1.1480480432510376,
        0.44339901208877563
      ],
      "type": "VEC3"
    },
    {
      "bufferView": 2,
      "byteOffset": 550536,
      "componentType": 5126,
      "count": 1378,
      "max": [
        0.9909748435020447,
        0.9696645140647888,
        0.9537531733512878
      ],
      "min": [
        -0.9909748435020447,
        -0.999995231628418,
        -0.9995058178901672
      ],
      "type": "VEC3"
    },
    {
      "bufferView": 1,
      "byteOffset": 178240,
      "componentType": 5126,
      "count": 1378,
      "max": [
        1.9795210361480713,
        0.8719879984855652
      ],
      "min": [
        1.0153870582580566,
        0.0019529999699443579
      ],
      "type": "VEC2"
    },
    {
      "bufferView": 0,
      "byteOffset": 278916,
      "componentType": 5125,
      "count": 2982,
      "type": "SCALAR"
    },
    {
      "bufferView": 2,
      "byteOffset": 567072,
      "componentType": 5126,
      "count": 10885,
      "max": [
        0.3615950047969818,
        -0.7408289909362793,
        0.5855290293693542
      ],
      "min": [
        -0.3615950047969818,
        -1.1108779907226563,
        0.3482249975204468
      ],
      "type": "VEC3"
    },
    {
      "bufferView": 2,
      "byteOffset": 697692,
      "componentType": 5126,
      "count": 10885,
      "max": [
        1.0,
        1.0,
        1.0
      ],
      "min": [
        -1.0,
        -1.0,
        -1.0
      ],
      "type": "VEC3"
    },
    {
      "bufferView": 1,
      "byteOffset": 189264,
      "componentType": 5126,
      "count": 10885,
      "max": [
        4.990816116333008,
        0.999210000038147
      ],
      "min": [
        0.0,
        0.0
      ],
      "type": "VEC2"
    },
    {
      "bufferView": 0,
      "byteOffset": 290844,
      "componentType": 5125,
      "count": 35304,
      "type": "SCALAR"
    },
    {
      "bufferView": 2,
      "byteOffset": 828312,
      "componentType": 5126,
      "count": 1254,
      "max": [
        0.3454410135746002,
        -0.8799229860305786,
        0.5008130073547363
      ],
      "min": [
        -0.24608199298381805,
        -1.0669649839401245,
        0.35189399123191833
      ],
      "type": "VEC3"
    },
    {
      "bufferView": 2,
      "byteOffset": 843360,
      "componentType": 5126,
      "count": 1254,
      "max": [
        0.9997372031211853,
        0.9923731088638306,
        0.9937793612480164
      ],
      "min": [
        -0.9991339445114136,
        -0.999984860420227,
        -0.9997715353965759
      ],
      "type": "VEC3"
    },
    {
      "bufferView": 1,
      "byteOffset": 276344,
      "componentType": 5126,
      "count": 1254,
      "max": [
        1.9985450506210327,
        0.9990400075912476
      ],
      "min": [
        1.0019530057907104,
        0.0019529999699443579
      ],
      "type": "VEC2"
    },
    {
      "bufferView": 0,
      "byteOffset": 432060,
      "componentType": 5125,
      "count": 4281,
      "type": "SCALAR"
    },
    {
      "bufferView": 2,
      "byteOffset": 858408,
      "componentType": 5126,
      "count": 1874,
      "max": [
        0.37294599413871765,
        -0.7418059706687927,
        0.6923739910125732
      ],
      "min": [
        -0.3614889979362488,
        -1.0144879817962646,
        0.42871400713920593
      ],
      "type": "VEC3"
    },
    {
      "bufferView": 2,
      "byteOffset": 880896,
      "componentType": 5126,
      "count": 1874,
      "max": [
        0.9994052648544312,
        0.9943920969963074,
        0.9973952174186707
      ],
      "min": [
        -0.9994052648544312,
        -0.9989727139472961,
        -0.9970844388008118
      ],
      "type": "VEC3"
    },
    {
      "bufferView": 1,
      "byteOffset": 286376,
      "componentType": 5126,
      "count": 1874,
      "max": [
        1.9911600351333618,
        0.950643002986908
      ],
      "min": [
        0.0,
        0.0
      ],
      "type": "VEC2"
    },
    {
      "bufferView": 0,
      "byteOffset": 449184,
      "componentType": 5125,
      "count": 5976,
      "type": "SCALAR"
    },
    {
      "bufferView": 2,
      "byteOffset": 903384,
      "componentType": 5126,
      "count": 270,
      "max": [
        0.4111439883708954,
        -0.8975059986114502,
        0.7150290012359619
      ],
      "min": [
        -0.4111439883708954,
        -1.087352991104126,
        -0.8368070125579834
      ],
      "type": "VEC3"
    },
    {
      "bufferView": 2,
      "byteOffset": 906624,
      "componentType": 5126,
      "count": 270,
      "max": [
        0.9924808144569397,
        0.9934110045433044,
        0.9737128615379333
      ],
      "min": [
        -0.9155705571174622,
        -0.9934110045433044,
        -0.996188759803772
      ],
      "type": "VEC3"
    },
    {
      "bufferView": 1,
      "byteOffset": 301368,
      "componentType": 5126,
      "count": 270,
      "max": [
        2.8387069702148438,
        0.9917569756507874
      ],
      "min": [
        0.5178580284118652,
        0.6901739835739136
      ],
      "type": "VEC2"
    },
    {
      "bufferView": 0,
      "byteOffset": 473088,
      "componentType": 5125,
      "count": 1032,
      "type": "SCALAR"
    },
    {
      "bufferView": 2,
      "byteOffset": 909864,
      "componentType": 5126,
      "count": 144,
      "max": [
        -0.14452099800109863,
        -0.9056140184402466,
        0.6832730174064636
      ],
      "min": [
        -0.3734560012817383,
        -1.0756239891052246,
        -0.8272870182991028
      ],
      "type": "VEC3"
    },
    {
      "bufferView": 2,
      "byteOffset": 911592,
      "componentType": 5126,
      "count": 144,
      "max": [
        1.0,
        1.0,
        1.0
      ],
      "min": [
        -1.0,
        -1.0,
        -1.0
      ],
      "type": "VEC3"
    },
    {
      "bufferView": 1,
      "byteOffset": 303528,
      "componentType": 5126,
      "count": 144,
      "max": [
        0.0,
        0.0
      ],
      "min": [
        0.0,
        0.0
      ],
      "type": "VEC2"
    },
    {
      "bufferView": 0,
      "byteOffset": 477216,
      "componentType": 5125,
      "count": 324,
      "type": "SCALAR"
    },
    {
      "bufferView": 2,
      "byteOffset": 913320,
      "componentType": 5126,
      "count": 10606,
      "max": [
        0.27218300104141235,
        -0.146588996052742,
        0.8540840148925781
      ],
      "min": [
        -0.276297003030777,
        -1.168105959892273,
        -0.9550979733467102
      ],
      "type": "VEC3"
    },
    {
      "bufferView": 2,
      "byteOffset": 1040592,
      "componentType": 5126,
      "count": 10606,
      "max": [
        0.9999997615814209,
        0.9999449253082275,
        0.9996148943901062
      ],
      "min": [
        -0.9999679327011108,
        -0.9999802112579346,
        -0.9985540509223938
      ],
      "type": "VEC3"
    },
    {
      "bufferView": 1,
      "byteOffset": 304680,
      "componentType": 5126,
      "count": 10606,
      "max": [
        0.9980030059814453,
        0.9984880089759827
      ],
      "min": [
        0.0019920000340789557,
        0.0023990001063793898
      ],
      "type": "VEC2"
    },
    {
      "bufferView": 0,
      "byteOffset": 478512,
      "componentType": 5125,
      "count": 31746,
      "type": "SCALAR"
    },
    {
      "bufferView": 2,
      "byteOffset": 1167864,
      "componentType": 5126,
      "count": 164,
      "max": [
        0.125,
        -0.0,
        0.125
      ],
      "min": [
        -0.125,
        -1.0545580387115479,
        -1.1499769687652588
      ],
      "type": "VEC3"
    },
    {
      "bufferView": 2,
      "byteOffset": 1169832,
      "componentType": 5126,
      "count": 164,
      "max": [
        1.0,
        0.8743630051612854,
        0.9903464913368225
      ],
      "min": [
        -1.0,
        -1.0,
        -0.9184713363647461
      ],
      "type": "VEC3"
    },
    {
      "bufferView": 1,
      "byteOffset": 389528,
      "componentType": 5126,
      "count": 164,
      "max": [
        1.0,
        1.0
      ],
      "min": [
        0.0,
        0.0
      ],
      "type": "VEC2"
    },
    {
      "bufferView": 0,
      "byteOffset": 605496,
      "componentType": 5125,
      "count": 378,
      "type": "SCALAR"
    },
    {
      "bufferView": 2,
      "byteOffset": 1171800,
      "componentType": 5126,
      "count": 3378,
      "max": [
        0.18445999920368195,
        -0.17077699303627014,
        0.9001110196113586
      ],
      "min": [
        -0.1844179928302765,
        -0.9717180132865906,
        -0.11612600088119507
      ],
      "type": "VEC3"
    },
    {
      "bufferView": 2,
      "byteOffset": 1212336,
      "componentType": 5126,
      "count": 3378,
      "max": [
        1.0,
        0.9991856813430786,
        0.9996991753578186
      ],
      "min": [
        -1.0,
        -0.9995082020759583,
        -0.9993239641189575
      ],
      "type": "VEC3"
    },
    {
      "bufferView": 1,
      "byteOffset": 390840,
      "componentType": 5126,
      "count": 3378,
      "max": [
        0.997389018535614,
        0.9993559718132019
      ],
      "min": [
        0.0021180000621825457,
        0.0018579999450594187
      ],
      "type": "VEC2"
    },
    {
      "bufferView": 0,
      "byteOffset": 607008,
      "componentType": 5125,
      "count": 9753,
      "type": "SCALAR"
    },
    {
      "bufferView": 2,
      "byteOffset": 1252872,
      "componentType": 5126,
      "count": 25289,
      "max": [
        0.2616040110588074,
        -0.17233599722385406,
        0.7444260120391846
      ],
      "min": [
        -0.261914998292923,
        -1.086303949356079,
        -0.9943600296974182
      ],
      "type": "VEC3"
    },
    {
      "bufferView": 2,
      "byteOffset": 1556340,
      "componentType": 5126,
      "count": 25289,
      "max": [
        1.0,
        1.0,
        1.0
      ],
      "min": [
        -1.0,
        -1.0,
        -1.0
      ],
      "type": "VEC3"
    },
    {
      "bufferView": 1,
      "byteOffset": 417864,
      "componentType": 5126,
      "count": 25289,
      "max": [
        4.99852180480957,
        0.9994800090789795
      ],
      "min": [
        4.000707149505615,
        0.0006079999729990959
      ],
      "type": "VEC2"
    },
    {
      "bufferView": 0,
      "byteOffset": 646020,
      "componentType": 5125,
      "count": 59793,
      "type": "SCALAR"
    },
    {
      "bufferView": 2,
      "byteOffset": 1859808,
      "componentType": 5126,
      "count": 9441,
      "max": [
        0.32095101475715637,
        -0.23628799617290497,
        0.8034319877624512
      ],
      "min": [
        -0.32095101475715637,
        -1.070412039756775,
        -0.8338980078697205
      ],
      "type": "VEC3"
    },
    {
      "bufferView": 2,
      "byteOffset": 1973100,
      "componentType": 5126,
      "count": 9441,
      "max": [
        1.0,
        1.0,
        1.0
      ],
      "min": [
        -1.0,
        -1.0,
        -1.0
      ],
      "type": "VEC3"
    },
    {
      "bufferView": 1,
      "byteOffset": 620176,
      "componentType": 5126,
      "count": 9441,
      "max": [
        4.997161865234375,
        0.9989989995956421
      ],
      "min": [
        0.0,
        0.0
      ],
      "type": "VEC2"
    },
    {
      "bufferView": 0,
      "byteOffset": 885192,
      "componentType": 5125,
      "count": 27234,
      "type": "SCALAR"
    },
    {
      "bufferView": 2,
      "byteOffset": 2086392,
      "componentType": 5126,
      "count": 7304,
      "max": [
        0.43076398968696594,
        -0.2687470018863678,
        0.7829560041427612
      ],
      "min": [
        -0.43076398968696594,
        -1.1277409791946411,
        -1.1240179538726807
      ],
      "type": "VEC3"
    },
    {
      "bufferView": 2,
      "byteOffset": 2174040,
      "componentType": 5126,
      "count": 7304,
      "max": [
        1.0,
        0.9999874830245972,
        1.0
      ],
      "min": [
        -1.0,
        -1.0,
        -1.0
      ],
      "type": "VEC3"
    },
    {
      "bufferView": 1,
      "byteOffset": 695704,
      "componentType": 5126,
      "count": 7304,
      "max": [
        4.992524147033691,
        0.998071014881134
      ],
      "min": [
        0.0,
        0.0
      ],
      "type": "VEC2"
    },
    {
      "bufferView": 0,
      "byteOffset": 994128,
      "componentType": 5125,
      "count": 21834,
      "type": "SCALAR"
    },
    {
      "bufferView": 2,
      "byteOffset": 2261688,
      "componentType": 5126,
      "count": 3379,
      "max": [
        0.3760859966278076,
        -0.24695399403572083,
        0.6838880181312561
      ],
      "min": [
        -0.3760859966278076,
        -1.078253984451294,
        -0.8280119895935059
      ],
      "type": "VEC3"
    },
    {
      "bufferView": 2,
      "byteOffset": 2302236,
      "componentType": 5126,
      "count": 3379,
      "max": [
        1.0,
        0.9998621940612793,
        0.9999998807907104
      ],
      "min": [
        -1.0,
        -1.0,
        -0.9999967813491821
      ],
      "type": "VEC3"
    },
    {
      "bufferView": 1,
      "byteOffset": 754136,
      "componentType": 5126,
      "count": 3379,
      "max": [
        4.995833873748779,
        0.9842849969863892
      ],
      "min": [
        0.0,
        0.0
      ],
      "type": "VEC2"
    },
    {
      "bufferView": 0,
      "byteOffset": 1081464,
      "componentType": 5125,
      "count": 8085,
      "type": "SCALAR"
    },
    {
      "bufferView": 2,
      "byteOffset": 2342784,
      "componentType": 5126,
      "count": 32,
      "max": [
        0.4269829988479614,
        -1.030513048171997,
        0.6353390216827393
      ],
      "min": [
        -0.4269829988479614,
        -1.1235380172729492,
        0.5940020084381104
      ],
      "type": "VEC3"
    },
    {
      "bufferView": 2,
      "byteOffset": 2343168,
      "componentType": 5126,
      "count": 32,
      "max": [
        -0.26320794224739075,
        0.004400132689625025,
        0.9647290706634521
      ],
      "min": [
        -0.26320794224739075,
        -0.004400132689625025,
        -0.9647290706634521
      ],
      "type": "VEC3"
    },
    {
      "bufferView": 1,
      "byteOffset": 781168,
      "componentType": 5126,
      "count": 32,
      "max": [
        0.22458000481128693,
        0.2720929980278015
      ],
      "min": [
        0.045503001660108566,
        0.16711199283599854
      ],
      "type": "VEC2"
    },
    {
      "bufferView": 0,
      "byteOffset": 1113804,
      "componentType": 5125,
      "count": 84,
      "type": "SCALAR"
    },
    {
      "bufferView": 2,
      "byteOffset": 2343552,
      "componentType": 5126,
      "count": 144,
      "max": [
        0.3734560012817383,
        -0.9056140184402466,
        0.6832730174064636
      ],
      "min": [
        0.14452099800109863,
        -1.0756239891052246,
        -0.8272870182991028
      ],
      "type": "VEC3"
    },
    {
      "bufferView": 2,
      "byteOffset": 2345280,
      "componentType": 5126,
      "count": 144,
      "max": [
        1.0,
        1.0,
        1.0
      ],
      "min": [
        -1.0,
        -1.0,
        -1.0
      ],
      "type": "VEC3"
    },
    {
      "bufferView": 1,
      "byteOffset": 781424,
      "componentType": 5126,
      "count": 144,
      "max": [
        0.0,
        0.0
      ],
      "min": [
        0.0,
        0.0
      ],
      "type": "VEC2"
    },
    {
      "bufferView": 0,
      "byteOffset": 1114140,
      "componentType": 5125,
      "count": 324,
      "type": "SCALAR"
    },
    {
      "bufferView": 2,
      "byteOffset": 2347008,
      "componentType": 5126,
      "count": 5409,
      "max": [
        0.09952700138092041,
        -0.07265400141477585,
        0.995406985282898
      ],
      "min": [
        -0.1544010043144226,
        -0.5934540033340454,
        -0.9966549873352051
      ],
      "type": "VEC3"
    },
    {
      "bufferView": 2,
      "byteOffset": 2411916,
      "componentType": 5126,
      "count": 5409,
      "max": [
        1.0,
        1.0,
        1.0
      ],
      "min": [
        -1.0,
        -1.0,
        -1.0
      ],
      "type": "VEC3"
    },
    {
      "bufferView": 1,
      "byteOffset": 782576,
      "componentType": 5126,
      "count": 5409,
      "max": [
        0.993340015411377,
        0.9953299760818481
      ],
      "min": [
        0.002739999908953905,
        0.002208000048995018
      ],
      "type": "VEC2"
    },
    {
      "bufferView": 0,
      "byteOffset": 1115436,
      "componentType": 5125,
      "count": 14979,
      "type": "SCALAR"
    },
    {
      "bufferView": 2,
      "byteOffset": 2476824,
      "componentType": 5126,
      "count": 118,
      "max": [
        0.0474339984357357,
        -0.7974820137023926,
        -0.8343080282211304
      ],
      "min": [
        -0.04528599977493286,
        -1.0800249576568604,
        -1.073477029800415
      ],
      "type": "VEC3"
    },
    {
      "bufferView": 2,
      "byteOffset": 2478240,
      "componentType": 5126,
      "count": 118,
      "max": [
        0.9997497200965881,
        0.989966869354248,
        0.7137161493301392
      ],
      "min": [
        -0.9997528195381165,
        -0.9853880405426025,
        -1.0
      ],
      "type": "VEC3"
    },
    {
      "bufferView": 1,
      "byteOffset": 825848,
      "componentType": 5126,
      "count": 118,
      "max": [
        0.9037410020828247,
        0.10770999640226364
      ],
      "min": [
        -1.3896689414978027,
        0.0068419999442994595
      ],
      "type": "VEC2"
    },
    {
      "bufferView": 0,
      "byteOffset": 1175352,
      "componentType": 5125,
      "count": 534,
      "type": "SCALAR"
    }
  ],
  "asset": {
    "extras": {
      "author": "Hari (https://sketchfab.com/Hari31)",
      "license": "SKETCHFAB Standard (https://sketchfab.com/licenses)",
      "source": "https://sketchfab.com/3d-models/2022-yamaha-r1-9caf5493d79d47aeacdec415b312fd5e",
      "title": "2022 Yamaha R1"
    },
    "generator": "Sketchfab-16.56.0",
    "version": "2.0"
  },
  "bufferViews": [
    {
      "buffer": 0,
      "byteLength": 1177488,
      "name": "floatBufferViews",
      "target": 34963
    },
    {
      "buffer": 0,
      "byteLength": 826792,
      "byteOffset": 1177488,
      "byteStride": 8,
      "name": "floatBufferViews",
      "target": 34962
    },
    {
      "buffer": 0,
      "byteLength": 2479656,
      "byteOffset": 2004280,
      "byteStride": 12,
      "name": "floatBufferViews",
      "target": 34962
    }
  ],
  "buffers": [
    {
      "byteLength": 4483936,
      "uri": "scene.bin"
    }
  ],
  "extensionsUsed": [
    "KHR_materials_specular",
    "KHR_materials_emissive_strength",
    "KHR_materials_clearcoat"
  ],
  "images": [
    {
      "uri": "textures/Brake_Discs_baseColor.png"
    },
    {
      "uri": "textures/Chain_baseColor.png"
    },
    {
      "uri": "textures/Display_baseColor.png"
    },
    {
      "uri": "textures/Exhaust_baseColor.png"
    },
    {
      "uri": "textures/Exhaust-Aluminum_baseColor.png"
    },
    {
      "uri": "textures/Exhaust-Aluminum_metallicRoughness.png"
    },
    {
      "uri": "textures/Exhaust-Aluminum_specularf0.png"
    },
    {
      "uri": "textures/Front_End_baseColor.png"
    },
    {
      "uri": "textures/Front_Tire_baseColor.png"
    },
    {
      "uri": "textures/Lights_-_Plastic_baseColor.png"
    },
    {
      "uri": "textures/Main_Decals_baseColor.png"
    },
    {
      "uri": "textures/Muffler_baseColor.png"
    },
    {
      "uri": "textures/Rear_Tire_baseColor.png"
    },
    {
      "uri": "textures/Rims_baseColor.png"
    },
    {
      "uri": "textures/Sprocket_baseColor.png"
    }
  ],
  "materials": [
    {
      "doubleSided": true,
      "name": "Bolts",
      "pbrMetallicRoughness": {
        "roughnessFactor": 0.5
      }
    },
    {
      "alphaMode": "BLEND",
      "doubleSided": true,
      "extensions": {
        "KHR_materials_specular": {
          "specularColorFactor": [
            1.0,
            1.0,
            1.0
          ],
          "specularFactor": 0.0
        }
      },
      "name": "Brake_Discs",
      "pbrMetallicRoughness": {
        "baseColorTexture": {
          "index": 0
        },
        "metallicFactor": 0.5,
        "roughnessFactor": 0.5
      }
    },
    {
      "doubleSided": true,
      "name": "Chain",
      "pbrMetallicRoughness": {
        "baseColorTexture": {
          "index": 1
        },
        "metallicFactor": 0.0,
        "roughnessFactor": 0.5
      }
    },
    {
      "doubleSided": true,
      "emissiveFactor": [
        1.0,
        1.0,
        1.0
      ],
      "extensions": {
        "KHR_materials_emissive_strength": {
          "emissiveStrength": 5.0
        }
      },
      "name": "DRLs",
      "pbrMetallicRoughness": {
        "metallicFactor": 0.25,
        "roughnessFactor": 0.7188293374048255
      }
    },
    {
      "doubleSided": true,
      "emissiveFactor": [
        1.0,
        1.0,
        1.0
      ],
      "emissiveTexture": {
        "index": 2
      },
      "name": "Display",
      "pbrMetallicRoughness": {
        "baseColorTexture": {
          "index": 2
        },
        "metallicFactor": 0.0,
        "roughnessFactor": 0.0
      }
    },
    {
      "doubleSided": true,
      "name": "Exhaust",
      "pbrMetallicRoughness": {
        "baseColorTexture": {
          "index": 3
        },
        "metallicFactor": 0.5,
        "roughnessFactor": 0.5
      }
    },
    {
      "doubleSided": true,
      "extensions": {
        "KHR_materials_specular": {
          "specularColorFactor": [
            1.0,
            1.0,
            1.0
          ],
          "specularFactor": 1.0,
          "specularTexture": {
            "index": 6
          }
        }
      },
      "name": "Exhaust-Aluminum",
      "pbrMetallicRoughness": {
        "baseColorTexture": {
          "index": 4
        },
        "metallicRoughnessTexture": {
          "index": 5
        }
      }
    },
    {
      "doubleSided": true,
      "name": "Forks",
      "pbrMetallicRoughness": {
        "baseColorFactor": [
          0.8,
          0.8,
          0.8,
          1.0
        ],
        "roughnessFactor": 0.0
      }
    },
    {
      "doubleSided": true,
      "name": "Front_End",
      "pbrMetallicRoughness": {
        "baseColorTexture": {
          "index": 7
        },
        "metallicFactor": 0.0,
        "roughnessFactor": 0.5
      }
    },
    {
      "doubleSided": true,
      "extensions": {
        "KHR_materials_specular": {
          "specularColorFactor": [
            1.0,
            1.0,
            1.0
          ],
          "specularFactor": 0.0
        }
      },
      "name": "Front_End_-_Aluminum",
      "pbrMetallicRoughness": {
        "baseColorTexture": {
          "index": 7
        },
        "roughnessFactor": 0.5
      }
    },
    {
      "doubleSided": true,
      "name": "Front_End_-_Plastics",
      "pbrMetallicRoughness": {
        "baseColorTexture": {
          "index": 7
        },
        "metallicFactor": 0.1,
        "roughnessFactor": 0.25
      }
    },
    {
      "doubleSided": true,
      "name": "Front_Tire",
      "pbrMetallicRoughness": {
        "baseColorTexture": {
          "index": 8
        },
        "metallicFactor": 0.0,
        "roughnessFactor": 0.75
      }
    },
    {
      "alphaMode": "BLEND",
      "doubleSided": true,
      "name": "Glass",
      "pbrMetallicRoughness": {
        "baseColorFactor": [
          1.0,
          1.0,
          1.0,
          0.75
        ],
        "roughnessFactor": 0.0
      }
    },
    {
      "doubleSided": true,
      "extensions": {
        "KHR_materials_clearcoat": {
          "clearcoatFactor": 1.0,
          "clearcoatRoughnessFactor": 0.04
        }
      },
      "name": "Headlight_Reflectors",
      "pbrMetallicRoughness": {
        "baseColorFactor": [
          0.0,
          0.0,
          0.0,
          1.0
        ],
        "roughnessFactor": 0.5
      }
    },
    {
      "doubleSided": true,
      "emissiveFactor": [
        1.0,
        1.0,
        1.0
      ],
      "extensions": {
        "KHR_materials_clearcoat": {
          "clearcoatFactor": 1.0,
          "clearcoatRoughnessFactor": 0.04
        },
        "KHR_materials_emissive_strength": {
          "emissiveStrength": 10.0
        },
        "KHR_materials_specular": {
          "specularColorFactor": [
            1.0,
            1.0,
            1.0
          ],
          "specularFactor": 1.0
        }
      },
      "name": "Headlights",
      "pbrMetallicRoughness": {
        "metallicFactor": 0.0,
        "roughnessFactor": 0.0
      }
    },
    {
      "alphaMode": "BLEND",
      "doubleSided": true,
      "name": "Indicator_Glass",
      "pbrMetallicRoughness": {
        "baseColorFactor": [
          1.0,
          0.27,
          0.0,
          0.25
        ],
        "roughnessFactor": 0.0
      }
    },
    {
      "doubleSided": true,
      "emissiveFactor": [
        1.0,
        1.0,
        0.0
      ],
      "extensions": {
        "KHR_materials_emissive_strength": {
          "emissiveStrength": 2.0
        }
      },
      "name": "Left_Indicator",
      "pbrMetallicRoughness": {
        "baseColorFactor": [
          1.0,
          0.996558,
          0.0,
          1.0
        ],
        "metallicFactor": 0.0
      }
    },
    {
      "doubleSided": true,
      "emissiveFactor": [
        1.0,
        1.0,
        1.0
      ],
      "emissiveTexture": {
        "index": 4
      },
      "extensions": {
        "KHR_materials_emissive_strength": {
          "emissiveStrength": 5.0
        }
      },
      "name": "License_Plate_Light",
      "pbrMetallicRoughness": {
        "baseColorTexture": {
          "index": 4
        },
        "metallicFactor": 0.0,
        "roughnessFactor": 0.8011823178082373
      }
    },
    {
      "doubleSided": true,
      "name": "Lights_-_Plastic",
      "pbrMetallicRoughness": {
        "baseColorTexture": {
          "index": 9
        },
        "metallicFactor": 0.5,
        "roughnessFactor": 0.0
      }
    },
    {
      "doubleSided": true,
      "name": "Main_Decals",
      "pbrMetallicRoughness": {
        "baseColorTexture": {
          "index": 10
        },
        "metallicFactor": 0.0,
        "roughnessFactor": 0.0
      }
    },
    {
      "doubleSided": true,
      "name": "Main_Decals_-_Aluminum",
      "pbrMetallicRoughness": {
        "baseColorTexture": {
          "index": 10
        },
        "metallicFactor": 0.75,
        "roughnessFactor": 0.5
      }
    },
    {
      "doubleSided": true,
      "name": "Main_Decals_-_Plastics",
      "pbrMetallicRoughness": {
        "baseColorTexture": {
          "index": 10
        },
        "metallicFactor": 0.1,
        "roughnessFactor": 0.25
      }
    },
    {
      "doubleSided": true,
      "name": "Mechanicals",
      "pbrMetallicRoughness": {
        "baseColorTexture": {
          "index": 4
        },
        "metallicFactor": 0.0,
        "roughnessFactor": 0.8
      }
    },
    {
      "doubleSided": true,
      "extensions": {
        "KHR_materials_specular": {
          "specularColorFactor": [
            1.0,
            1.0,
            1.0
          ],
          "specularFactor": 1.0
        }
      },
      "name": "Mechanicals-Aluminum",
      "pbrMetallicRoughness": {
        "baseColorTexture": {
          "index": 4
        },
        "roughnessFactor": 0.5
      }
    },
    {
      "doubleSided": true,
      "name": "Mirrors",
      "pbrMetallicRoughness": {
        "baseColorFactor": [
          0.8,
          0.8,
          0.8,
          1.0
        ],
        "roughnessFactor": 0.0
      }
    },
    {
      "doubleSided": true,
      "name": "Muffler",
      "pbrMetallicRoughness": {
        "baseColorTexture": {
          "index": 11
        },
        "metallicFactor": 0.25,
        "roughnessFactor": 0.8011823178082373
      }
    },
    {
      "doubleSided": true,
      "name": "Muffler-Aluminum",
      "pbrMetallicRoughness": {
        "baseColorTexture": {
          "index": 11
        },
        "metallicFactor": 0.0,
        "roughnessFactor": 0.8011823178082373
      }
    },
    {
      "doubleSided": true,
      "name": "Rear_Reflector",
      "pbrMetallicRoughness": {
        "baseColorFactor": [
          1.0,
          0.0,
          0.0,
          1.0
        ],
        "roughnessFactor": 0.75
      }
    },
    {
      "doubleSided": true,
      "name": "Rear_Tire",
      "pbrMetallicRoughness": {
        "baseColorTexture": {
          "index": 12
        },
        "metallicFactor": 0.0,
        "roughnessFactor": 0.75
      }
    },
    {
      "doubleSided": true,
      "name": "Reflectors",
      "pbrMetallicRoughness": {
        "baseColorTexture": {
          "index": 4
        },
        "roughnessFactor": 0.25
      }
    },
    {
      "doubleSided": true,
      "emissiveFactor": [
        1.0,
        1.0,
        0.0
      ],
      "extensions": {
        "KHR_materials_emissive_strength": {
          "emissiveStrength": 5.0
        }
      },
      "name": "Right_Indicator",
      "pbrMetallicRoughness": {
        "baseColorFactor": [
          1.0,
          0.996557,
          0.0,
          1.0
        ],
        "metallicFactor": 0.0
      }
    },
    {
      "doubleSided": true,
      "name": "Rims",
      "pbrMetallicRoughness": {
        "baseColorTexture": {
          "index": 13
        },
        "metallicFactor": 0.0,
        "roughnessFactor": 0.0
      }
    },
    {
      "doubleSided": true,
      "name": "Seats",
      "pbrMetallicRoughness": {
        "baseColorTexture": {
          "index": 10
        },
        "metallicFactor": 0.0,
        "roughnessFactor": 0.75
      }
    },
    {
      "alphaMode": "BLEND",
      "doubleSided": true,
      "name": "Sprocket",
      "pbrMetallicRoughness": {
        "baseColorTexture": {
          "index": 14
        },
        "metallicFactor": 0.0,
        "roughnessFactor": 0.8011823178082373
      }
    },
    {
      "doubleSided": true,
      "emissiveFactor": [
        1.0,
        1.0,
        1.0
      ],
      "emissiveTexture": {
        "index": 9
      },
      "extensions": {
        "KHR_materials_emissive_strength": {
          "emissiveStrength": 3.0
        }
      },
      "name": "Taillight",
      "pbrMetallicRoughness": {
        "baseColorTexture": {
          "index": 9
        }
      }
    },
    {
      "alphaMode": "BLEND",
      "doubleSided": true,
      "name": "Taillight_Glass",
      "pbrMetallicRoughness": {
        "baseColorFactor": [
          1.0,
          0.0,
          0.0,
          0.5
        ],
        "roughnessFactor": 0.7188293374048255
      }
    },
    {
      "alphaMode": "BLEND",
      "doubleSided": true,
      "extensions": {
        "KHR_materials_specular": {
          "specularColorFactor": [
            1.0,
            1.0,
            1.0
          ],
          "specularFactor": 0.0
        }
      },
      "name": "Windshield",
      "pbrMetallicRoughness": {
        "baseColorFactor": [
          0.8,
          0.8,
          0.8,
          0.2
        ],
        "roughnessFactor": 0.0
      }
    }
  ],
  "meshes": [
    {
      "name": "Object_0",
      "primitives": [
        {
          "attributes": {
            "NORMAL": 1,
            "POSITION": 0,
            "TEXCOORD_0": 2
          },
          "indices": 3,
          "material": 2,
          "mode": 4
        }
      ]
    },
    {
      "name": "Object_1",
      "primitives": [
        {
          "attributes": {
            "NORMAL": 5,
            "POSITION": 4,
            "TEXCOORD_0": 6
          },
          "indices": 7,
          "material": 3,
          "mode": 4
        }
      ]
    },
    {
      "name": "Object_2",
      "primitives": [
        {
          "attributes": {
            "NORMAL": 9,
            "POSITION": 8,
            "TEXCOORD_0": 10
          },
          "indices": 11,
          "material": 5,
          "mode": 4
        }
      ]
    },
    {
      "name": "Object_3",
      "primitives": [
        {
          "attributes": {
            "NORMAL": 13,
            "POSITION": 12,
            "TEXCOORD_0": 14
          },
          "indices": 15,
          "material": 6,
          "mode": 4
        }
      ]
    },
    {
      "name": "Object_4",
      "primitives": [
        {
          "attributes": {
            "NORMAL": 17,
            "POSITION": 16,
            "TEXCOORD_0": 18
          },
          "indices": 19,
          "material": 7,
          "mode": 4
        }
      ]
    },
    {
      "name": "Object_5",
      "primitives": [
        {
          "attributes": {
            "NORMAL": 21,
            "POSITION": 20,
            "TEXCOORD_0": 22
          },
          "indices": 23,
          "material": 10,
          "mode": 4
        }
      ]
    },
    {
      "name": "Object_6",
      "primitives": [
        {
          "attributes": {
            "NORMAL": 25,
            "POSITION": 24,
            "TEXCOORD_0": 26
          },
          "indices": 27,
          "material": 11,
          "mode": 4
        }
      ]
    },
    {
      "name": "Object_7",
      "primitives": [
        {
          "attributes": {
            "NORMAL": 29,
            "POSITION": 28,
            "TEXCOORD_0": 30
          },
          "indices": 31,
          "material": 12,
          "mode": 4
        }
      ]
    },
    {
      "name": "Object_8",
      "primitives": [
        {
          "attributes": {
            "NORMAL": 33,
            "POSITION": 32,
            "TEXCOORD_0": 34
          },
          "indices": 35,
          "material": 13,
          "mode": 4
        }
      ]
    },
    {
      "name": "Object_9",
      "primitives": [
        {
          "attributes": {
            "NORMAL": 37,
            "POSITION": 36,
            "TEXCOORD_0": 38
          },
          "indices": 39,
          "material": 14,
          "mode": 4
        }
      ]
    },
    {
      "name": "Object_10",
      "primitives": [
        {
          "attributes": {
            "NORMAL": 41,
            "POSITION": 40,
            "TEXCOORD_0": 42
          },
          "indices": 43,
          "material": 17,
          "mode": 4
        }
      ]
    },
    {
      "name": "Object_11",
      "primitives": [
        {
          "attributes": {
            "NORMAL": 45,
            "POSITION": 44,
            "TEXCOORD_0": 46
          },
          "indices": 47,
          "material": 18,
          "mode": 4
        }
      ]
    },
    {
      "name": "Object_12",
      "primitives": [
        {
          "attributes": {
            "NORMAL": 49,
            "POSITION": 48,
            "TEXCOORD_0": 50
          },
          "indices": 51,
          "material": 21,
          "mode": 4
        }
      ]
    },
    {
      "name": "Object_13",
      "primitives": [
        {
          "attributes": {
            "POSITION": 52,
            "TEXCOORD_0": 53
          },
          "indices": 54,
          "material": 22,
          "mode": 1
        }
      ]
    },
    {
      "name": "Object_14",
      "primitives": [
        {
          "attributes": {
            "NORMAL": 56,
            "POSITION": 55,
            "TEXCOORD_0": 57
          },
          "indices": 58,
          "material": 25,
          "mode": 4
        }
      ]
    },
    {
      "name": "Object_15",
      "primitives": [
        {
          "attributes": {
            "NORMAL": 60,
            "POSITION": 59,
            "TEXCOORD_0": 61
          },
          "indices": 62,
          "material": 26,
          "mode": 4
        }
      ]
    },
    {
      "name": "Object_16",
      "primitives": [
        {
          "attributes": {
            "NORMAL": 64,
            "POSITION": 63,
            "TEXCOORD_0": 65
          },
          "indices": 66,
          "material": 27,
          "mode": 4
        }
      ]
    },
    {
      "name": "Object_17",
      "primitives": [
        {
          "attributes": {
            "NORMAL": 68,
            "POSITION": 67,
            "TEXCOORD_0": 69
          },
          "indices": 70,
          "material": 28,
          "mode": 4
        }
      ]
    },
    {
      "name": "Object_18",
      "primitives": [
        {
          "attributes": {
            "NORMAL": 72,
            "POSITION": 71,
            "TEXCOORD_0": 73
          },
          "indices": 74,
          "material": 29,
          "mode": 4
        }
      ]
    },
    {
      "name": "Object_19",
      "primitives": [
        {
          "attributes": {
            "NORMAL": 76,
            "POSITION": 75,
            "TEXCOORD_0": 77
          },
          "indices": 78,
          "material": 32,
          "mode": 4
        }
      ]
    },
    {
      "name": "Object_20",
      "primitives": [
        {
          "attributes": {
            "NORMAL": 80,
            "POSITION": 79,
            "TEXCOORD_0": 81
          },
          "indices": 82,
          "material": 33,
          "mode": 4
        }
      ]
    },
    {
      "name": "Object_21",
      "primitives": [
        {
          "attributes": {
            "NORMAL": 84,
            "POSITION": 83,
            "TEXCOORD_0": 85
          },
          "indices": 86,
          "material": 34,
          "mode": 4
        }
      ]
    },
    {
      "name": "Object_22",
      "primitives": [
        {
          "attributes": {
            "NORMAL": 88,
            "POSITION": 87,
            "TEXCOORD_0": 89
          },
          "indices": 90,
          "material": 36,
          "mode": 4
        }
      ]
    },
    {
      "name": "Object_23",
      "primitives": [
        {
          "attributes": {
            "NORMAL": 92,
            "POSITION": 91,
            "TEXCOORD_0": 93
          },
          "indices": 94,
          "material": 0,
          "mode": 4
        }
      ]
    },
    {
      "name": "Object_24",
      "primitives": [
        {
          "attributes": {
            "NORMAL": 96,
            "POSITION": 95,
            "TEXCOORD_0": 97
          },
          "indices": 98,
          "material": 1,
          "mode": 4
        }
      ]
    },
    {
      "name": "Object_25",
      "primitives": [
        {
          "attributes": {
            "NORMAL": 100,
            "POSITION": 99,
            "TEXCOORD_0": 101
          },
          "indices": 102,
          "material": 4,
          "mode": 4
        }
      ]
    },
    {
      "name": "Object_26",
      "primitives": [
        {
          "attributes": {
            "NORMAL": 104,
            "POSITION": 103,
            "TEXCOORD_0": 105
          },
          "indices": 106,
          "material": 8,
          "mode": 4
        }
      ]
    },
    {
      "name": "Object_27",
      "primitives": [
        {
          "attributes": {
            "NORMAL": 108,
            "POSITION": 107,
            "TEXCOORD_0": 109
          },
          "indices": 110,
          "material": 8,
          "mode": 4
        }
      ]
    },
    {
      "name": "Object_28",
      "primitives": [
        {
          "attributes": {
            "NORMAL": 112,
            "POSITION": 111,
            "TEXCOORD_0": 113
          },
          "indices": 114,
          "material": 8,
          "mode": 4
        }
      ]
    },
    {
      "name": "Object_29",
      "primitives": [
        {
          "attributes": {
            "NORMAL": 116,
            "POSITION": 115,
            "TEXCOORD_0": 117
          },
          "indices": 118,
          "material": 9,
          "mode": 4
        }
      ]
    },
    {
      "name": "Object_30",
      "primitives": [
        {
          "attributes": {
            "NORMAL": 120,
            "POSITION": 119,
            "TEXCOORD_0": 121
          },
          "indices": 122,
          "material": 15,
          "mode": 4
        }
      ]
    },
    {
      "name": "Object_31",
      "primitives": [
        {
          "attributes": {
            "NORMAL": 124,
            "POSITION": 123,
            "TEXCOORD_0": 125
          },
          "indices": 126,
          "material": 16,
          "mode": 4
        }
      ]
    },
    {
      "name": "Object_32",
      "primitives": [
        {
          "attributes": {
            "NORMAL": 128,
            "POSITION": 127,
            "TEXCOORD_0": 129
          },
          "indices": 130,
          "material": 19,
          "mode": 4
        }
      ]
    },
    {
      "name": "Object_33",
      "primitives": [
        {
          "attributes": {
            "NORMAL": 132,
            "POSITION": 131,
            "TEXCOORD_0": 133
          },
          "indices": 134,
          "material": 19,
          "mode": 4
        }
      ]
    },
    {
      "name": "Object_34",
      "primitives": [
        {
          "attributes": {
            "NORMAL": 136,
            "POSITION": 135,
            "TEXCOORD_0": 137
          },
          "indices": 138,
          "material": 20,
          "mode": 4
        }
      ]
    },
    {
      "name": "Object_35",
      "primitives": [
        {
          "attributes": {
            "NORMAL": 140,
            "POSITION": 139,
            "TEXCOORD_0": 141
          },
          "indices": 142,
          "material": 22,
          "mode": 4
        }
      ]
    },
    {
      "name": "Object_36",
      "primitives": [
        {
          "attributes": {
            "NORMAL": 144,
            "POSITION": 143,
            "TEXCOORD_0": 145
          },
          "indices": 146,
          "material": 22,
          "mode": 4
        }
      ]
    },
    {
      "name": "Object_37",
      "primitives": [
        {
          "attributes": {
            "NORMAL": 148,
            "POSITION": 147,
            "TEXCOORD_0": 149
          },
          "indices": 150,
          "material": 22,
          "mode": 4
        }
      ]
    },
    {
      "name": "Object_38",
      "primitives": [
        {
          "attributes": {
            "NORMAL": 152,
            "POSITION": 151,
            "TEXCOORD_0": 153
          },
          "indices": 154,
          "material": 23,
          "mode": 4
        }
      ]
    },
    {
      "name": "Object_39",
      "primitives": [
        {
          "attributes": {
            "NORMAL": 156,
            "POSITION": 155,
            "TEXCOORD_0": 157
          },
          "indices": 158,
          "material": 24,
          "mode": 4
        }
      ]
    },
    {
      "name": "Object_40",
      "primitives": [
        {
          "attributes": {
            "NORMAL": 160,
            "POSITION": 159,
            "TEXCOORD_0": 161
          },
          "indices": 162,
          "material": 30,
          "mode": 4
        }
      ]
    },
    {
      "name": "Object_41",
      "primitives": [
        {
          "attributes": {
            "NORMAL": 164,
            "POSITION": 163,
            "TEXCOORD_0": 165
          },
          "indices": 166,
          "material": 31,
          "mode": 4
        }
      ]
    },
    {
      "name": "Object_42",
      "primitives": [
        {
          "attributes": {
            "NORMAL": 168,
            "POSITION": 167,
            "TEXCOORD_0": 169
          },
          "indices": 170,
          "material": 35,
          "mode": 4
        }
      ]
    }
  ],
  "nodes": [
    {
      "children": [
        1
      ],
      "matrix": [
        1.0,
        2.8327693431939985e-16,
        1.60812262295773e-16,
        0.0,
        2.832769343193999e-16,
        -1.0,
        0.0,
        0.0,
        1.6081226229577292e-16,
        0.0,
        -1.0,
        0.0,
        0.0,
        0.0,
        0.0,
        1.0
      ],
      "name": "Sketchfab_model"
    },
    {
      "children": [
        2,
        3,
        4,
        5,
        6,
        7,
        8,
        9,
        10,
        11,
        12,
        13,
        14,
        15,
        16,
        17,
        18,
        19,
        20,
        21,
        22,
        23,
        24,
        25,
        26,
        27,
        28,
        29,
        30,
        31,
        32,
        33,
        34,
        35,
        36,
        37,
        38,
        39,
        40,
        41,
        42,
        43,
        44
      ],
      "name": "2022 Yamaha R1.obj.cleaner.materialmerger.gles"
    },
    {
      "mesh": 0,
      "name": "Object_2"
    },
    {
      "mesh": 1,
      "name": "Object_3"
    },
    {
      "mesh": 2,
      "name": "Object_4"
    },
    {
      "mesh": 3,
      "name": "Object_5"
    },
    {
      "mesh": 4,
      "name": "Object_6"
    },
    {
      "mesh": 5,
      "name": "Object_7"
    },
    {
      "mesh": 6,
      "name": "Object_8"
    },
    {
      "mesh": 7,
      "name": "Object_9"
    },
    {
      "mesh": 8,
      "name": "Object_10"
    },
    {
      "mesh": 9,
      "name": "Object_11"
    },
    {
      "mesh": 10,
      "name": "Object_12"
    },
    {
      "mesh": 11,
      "name": "Object_13"
    },
    {
      "mesh": 12,
      "name": "Object_14"
    },
    {
      "mesh": 13,
      "name": "Object_15"
    },
    {
      "mesh": 14,
      "name": "Object_16"
    },
    {
      "mesh": 15,
      "name": "Object_17"
    },
    {
      "mesh": 16,
      "name": "Object_18"
    },
    {
      "mesh": 17,
      "name": "Object_19"
    },
    {
      "mesh": 18,
      "name": "Object_20"
    },
    {
      "mesh": 19,
      "name": "Object_21"
    },
    {
      "mesh": 20,
      "name": "Object_22"
    },
    {
      "mesh": 21,
      "name": "Object_23"
    },
    {
      "mesh": 22,
      "name": "Object_24"
    },
    {
      "mesh": 23,
      "name": "Object_25"
    },
    {
      "mesh": 24,
      "name": "Object_26"
    },
    {
      "mesh": 25,
      "name": "Object_27"
    },
    {
      "mesh": 26,
      "name": "Object_28"
    },
    {
      "mesh": 27,
      "name": "Object_29"
    },
    {
      "mesh": 28,
      "name": "Object_30"
    },
    {
      "mesh": 29,
      "name": "Object_31"
    },
    {
      "mesh": 30,
      "name": "Object_32"
    },
    {
      "mesh": 31,
      "name": "Object_33"
    },
    {
      "mesh": 32,
      "name": "Object_34"
    },
    {
      "mesh": 33,
      "name": "Object_35"
    },
    {
      "mesh": 34,
      "name": "Object_36"
    },
    {
      "mesh": 35,
      "name": "Object_37"
    },
    {
      "mesh": 36,
      "name": "Object_38"
    },
    {
      "mesh": 37,
      "name": "Object_39"
    },
    {
      "mesh": 38,
      "name": "Object_40"
    },
    {
      "mesh": 39,
      "name": "Object_41"
    },
    {
      "mesh": 40,
      "name": "Object_42"
    },
    {
      "mesh": 41,
      "name": "Object_43"
    },
    {
      "mesh": 42,
      "name": "Object_44"
    }
  ],
  "samplers": [
    {
      "magFilter": 9729,
      "minFilter": 9987,
      "wrapS": 10497,
      "wrapT": 10497
    }
  ],
  "scene": 0,
  "scenes": [
    {
      "name": "Sketchfab_Scene",
      "nodes": [
        0
      ]
    }
  ],
  "textures": [
    {
      "sampler": 0,
      "source": 0
    },
    {
      "sampler": 0,
      "source": 1
    },
    {
      "sampler": 0,
      "source": 2
    },
    {
      "sampler": 0,
      "source": 3
    },
    {
      "sampler": 0,
      "source": 4
    },
    {
      "sampler": 0,
      "source": 5
    },
    {
      "sampler": 0,
      "source": 6
    },
    {
      "sampler": 0,
      "source": 7
    },
    {
      "sampler": 0,
      "source": 8
    },
    {
      "sampler": 0,
      "source": 9
    },
    {
      "sampler": 0,
      "source": 10
    },
    {
      "sampler": 0,
      "source": 11
    },
    {
      "sampler": 0,
      "source": 12
    },
    {
      "sampler": 0,
      "source": 13
    },
    {
      "sampler": 0,
      "source": 14
    }
  ]
}
